<svg xmlns="http://www.w3.org/2000/svg" viewBox="0 0 1200 920" font-family="'Segoe UI', 'Helvetica Neue', Arial, sans-serif">
  <defs>
    <style>
      .bg { fill: #0f1724; }
      .title { fill: #e8edf3; font-size: 22px; font-weight: 700; }
      .subtitle { fill: #7eb8da; font-size: 13px; }
      .decision { fill: #1a2332; stroke: #4a90c4; stroke-width: 2; }
      .decision-label { fill: #e8edf3; font-size: 12px; font-weight: 600; text-anchor: middle; }
      .decision-sub { fill: #8a9bb5; font-size: 10px; text-anchor: middle; }
      .process { fill: #1e3148; stroke: #3b6a9b; stroke-width: 1.5; rx: 8; }
      .process-label { fill: #e8edf3; font-size: 13px; font-weight: 600; }
      .process-sub { fill: #8a9bb5; font-size: 11px; }
      .process-detail { fill: #6a8aaa; font-size: 10px; }
      .success-box { fill: #1a2a1a; stroke: #27ae60; stroke-width: 2; rx: 8; }
      .success-label { fill: #2ecc71; font-size: 13px; font-weight: 700; text-anchor: middle; }
      .success-sub { fill: #7eda7e; font-size: 11px; text-anchor: middle; }
      .fail-box { fill: #2a1a1a; stroke: #c0392b; stroke-width: 2; rx: 8; }
      .fail-label { fill: #e74c3c; font-size: 13px; font-weight: 700; text-anchor: middle; }
      .warn-box { fill: #2a2a1a; stroke: #f39c12; stroke-width: 1.5; rx: 6; }
      .warn-label { fill: #f1c40f; font-size: 11px; }
      .arrow { stroke: #4a90c4; stroke-width: 1.5; fill: none; marker-end: url(#arrowhead); }
      .arrow-yes { stroke: #27ae60; stroke-width: 2; fill: none; marker-end: url(#arrowhead-green); }
      .arrow-no { stroke: #c0392b; stroke-width: 1.5; fill: none; marker-end: url(#arrowhead-red); }
      .arrow-label { fill: #b0c4de; font-size: 11px; }
      .yes-label { fill: #2ecc71; font-size: 11px; font-weight: 600; }
      .no-label { fill: #e74c3c; font-size: 11px; font-weight: 600; }
      .section-box { fill: #141e2e; stroke: #2d4a6f; stroke-width: 1; rx: 8; }
      .section-label { fill: #5a7a9b; font-size: 12px; font-weight: 600; }
      .probe-box { fill: #1a2a2a; stroke: #2d6f6f; stroke-width: 1.5; rx: 6; }
      .probe-label { fill: #7edada; font-size: 11px; }
      .migration-box { fill: #1a1a2a; stroke: #6f2d6f; stroke-width: 1.5; rx: 8; }
      .migration-label { fill: #da7eda; font-size: 12px; font-weight: 600; }
      .migration-sub { fill: #bb8fce; font-size: 10px; }
      .legend-box { fill: #141e2e; stroke: #2d4a6f; stroke-width: 1; rx: 6; }
      .legend-text { fill: #8a9bb5; font-size: 11px; }
      .legend-title { fill: #b0c4de; font-size: 12px; font-weight: 600; }
    </style>
    <marker id="arrowhead" markerWidth="7" markerHeight="5" refX="6" refY="2.5" orient="auto">
      <polygon points="0 0, 7 2.5, 0 5" fill="#4a90c4"/>
    </marker>
    <marker id="arrowhead-green" markerWidth="7" markerHeight="5" refX="6" refY="2.5" orient="auto">
      <polygon points="0 0, 7 2.5, 0 5" fill="#27ae60"/>
    </marker>
    <marker id="arrowhead-red" markerWidth="7" markerHeight="5" refX="6" refY="2.5" orient="auto">
      <polygon points="0 0, 7 2.5, 0 5" fill="#c0392b"/>
    </marker>
  </defs>

  <rect class="bg" width="1200" height="920"/>

  <!-- Title -->
  <text class="title" x="40" y="35">Storage Backend Selection and Migration</text>
  <text class="subtitle" x="40" y="55">Probe-based detection with priority chains, forced selection, and atomic migration with rollback</text>

  <!-- Start -->
  <rect class="process" x="80" y="80" width="200" height="40"/>
  <text class="process-label" x="100" y="105">StorageRouter::detect()</text>

  <path class="arrow" d="M 180,120 L 180,145"/>

  <!-- Decision: Forced? -->
  <polygon class="decision" points="180,150 310,195 180,240 50,195"/>
  <text class="decision-label" x="180" y="192">UNIX_OIDC_STORAGE</text>
  <text class="decision-label" x="180" y="205">_BACKEND set?</text>

  <!-- YES: Forced path -->
  <path class="arrow-yes" d="M 310,195 L 380,195"/>
  <text class="yes-label" x="340" y="190">YES</text>

  <!-- Forced backend selection -->
  <rect class="process" x="385" y="170" width="200" height="50"/>
  <text class="process-label" x="405" y="193">Probe Forced Backend</text>
  <text class="process-sub" x="405" y="208">Requested backend only</text>

  <path class="arrow" d="M 585,195 L 620,195"/>

  <!-- Decision: Probe OK? -->
  <polygon class="decision" points="720,160 820,195 720,230 620,195"/>
  <text class="decision-label" x="720" y="198">Probe OK?</text>

  <path class="arrow-yes" d="M 820,195 L 880,195"/>
  <text class="yes-label" x="840" y="190">YES</text>

  <rect class="success-box" x="885" y="177" width="150" height="36"/>
  <text class="success-label" x="960" y="198">Use Forced Backend</text>

  <path class="arrow-no" d="M 720,230 L 720,260"/>
  <text class="no-label" x="730" y="248">NO</text>

  <rect class="fail-box" x="645" y="262" width="150" height="36"/>
  <text class="fail-label" x="720" y="284">Err (no fallthrough)</text>

  <!-- NO: Auto-detect path -->
  <path class="arrow-no" d="M 180,240 L 180,290"/>
  <text class="no-label" x="140" y="268">NO (auto)</text>

  <!-- Platform-specific probe chain -->
  <rect class="section-box" x="30" y="295" width="770" height="240"/>
  <text class="section-label" x="50" y="315">Auto-Detection Priority Chain</text>

  <!-- Linux chain -->
  <text class="section-label" x="50" y="340" style="fill: #7eb8da;">Linux</text>

  <!-- Probe 1: Secret Service -->
  <rect class="probe-box" x="50" y="350" width="170" height="55"/>
  <text class="probe-label" x="65" y="370">1. Secret Service (D-Bus)</text>
  <text class="process-detail" x="65" y="385">sync-secret-service feature</text>
  <text class="process-detail" x="65" y="398">write -> read -> delete probe</text>

  <path class="arrow-yes" d="M 220,377 L 245,377"/>
  <text class="yes-label" x="225" y="370">OK</text>

  <rect class="success-box" x="250" y="363" width="100" height="30"/>
  <text class="success-label" x="300" y="382" style="font-size: 11px;">Selected</text>

  <path class="arrow-no" d="M 135,405 L 135,418"/>
  <text class="no-label" x="145" y="414">fail</text>

  <!-- Probe 2: keyutils -->
  <rect class="probe-box" x="50" y="420" width="170" height="55"/>
  <text class="probe-label" x="65" y="440">2. keyutils @u Keyring</text>
  <text class="process-detail" x="65" y="455">linux-native feature</text>
  <text class="process-detail" x="65" y="468">write -> read -> delete probe</text>

  <path class="arrow-yes" d="M 220,447 L 245,447"/>
  <text class="yes-label" x="225" y="440">OK</text>

  <rect class="success-box" x="250" y="433" width="100" height="30"/>
  <text class="success-label" x="300" y="452" style="font-size: 11px;">Selected</text>

  <path class="arrow-no" d="M 135,475 L 135,490"/>
  <text class="no-label" x="145" y="486">fail</text>

  <!-- macOS chain -->
  <text class="section-label" x="420" y="340" style="fill: #7eb8da;">macOS</text>

  <!-- Probe: macOS Keychain -->
  <rect class="probe-box" x="420" y="350" width="170" height="55"/>
  <text class="probe-label" x="435" y="370">1. macOS Keychain</text>
  <text class="process-detail" x="435" y="385">apple-native feature</text>
  <text class="process-detail" x="435" y="398">write -> read -> delete probe</text>

  <path class="arrow-yes" d="M 590,377 L 615,377"/>
  <text class="yes-label" x="595" y="370">OK</text>

  <rect class="success-box" x="620" y="363" width="100" height="30"/>
  <text class="success-label" x="670" y="382" style="font-size: 11px;">Selected</text>

  <path class="arrow-no" d="M 505,405 L 505,490"/>
  <text class="no-label" x="515" y="445">fail</text>

  <!-- File fallback (both platforms) -->
  <rect class="probe-box" x="180" y="495" width="380" height="30"/>
  <text class="probe-label" x="195" y="515">File Fallback: FileStorage::new() -> 0600 mode, DoD secure delete</text>

  <!-- Probe detail -->
  <rect class="section-box" x="830" y="295" width="340" height="240"/>
  <text class="section-label" x="850" y="315">Probe Mechanism</text>

  <rect class="probe-box" x="850" y="325" width="300" height="200"/>
  <text class="probe-label" x="865" y="345">probe_backend(backend):</text>
  <text class="process-detail" x="865" y="365">1. Generate unique key:</text>
  <text class="process-detail" x="880" y="380">"unix-oidc-probe-{PID}-{atomic_seq}"</text>
  <text class="process-detail" x="865" y="400">2. Store sentinel value "probe-ok"</text>
  <text class="process-detail" x="865" y="420">3. Read back and compare</text>
  <text class="process-detail" x="865" y="440">4. Delete probe key (always, even on fail)</text>
  <text class="process-detail" x="865" y="460">5. Return Ok(()) or Err</text>
  <text class="process-detail" x="865" y="485" style="fill: #f39c12;">Unique key prevents collision</text>
  <text class="process-detail" x="865" y="500" style="fill: #f39c12;">between parallel probes in tests</text>
  <text class="process-detail" x="865" y="515" style="fill: #f39c12;">or concurrent daemon starts</text>

  <!-- Migration section -->
  <rect class="section-box" x="30" y="555" width="1140" height="225"/>
  <text class="section-label" x="50" y="575">Migration Flow (maybe_migrate_from)</text>

  <!-- Migration decision -->
  <polygon class="decision" points="140,600 240,630 140,660 40,630"/>
  <text class="decision-label" x="140" y="633">Backend = File?</text>

  <path class="arrow-yes" d="M 140,660 L 140,685"/>
  <text class="yes-label" x="100" y="678">YES</text>

  <rect class="process" x="70" y="688" width="140" height="30"/>
  <text class="process-sub" x="90" y="708">NotApplicable (skip)</text>

  <path class="arrow-no" d="M 240,630 L 280,630"/>
  <text class="no-label" x="255" y="625">NO</text>

  <!-- Check source keys -->
  <rect class="migration-box" x="285" y="608" width="160" height="45"/>
  <text class="migration-label" x="305" y="628">Check Source Keys</text>
  <text class="migration-sub" x="305" y="643">dpop, access, refresh, metadata</text>

  <path class="arrow" d="M 445,630 L 475,630"/>

  <!-- Decision: Keys exist? -->
  <polygon class="decision" points="555,600 635,630 555,660 475,630"/>
  <text class="decision-label" x="555" y="633">Keys exist?</text>

  <path class="arrow-no" d="M 555,660 L 555,685"/>
  <text class="no-label" x="565" y="678">NO</text>
  <rect class="process" x="490" y="688" width="130" height="25"/>
  <text class="process-sub" x="510" y="705">NotApplicable</text>

  <path class="arrow-yes" d="M 635,630 L 665,630"/>
  <text class="yes-label" x="645" y="625">YES</text>

  <!-- Migration loop -->
  <rect class="migration-box" x="670" y="590" width="210" height="80"/>
  <text class="migration-label" x="690" y="610">For each key:</text>
  <text class="migration-sub" x="690" y="628">1. Write to destination</text>
  <text class="migration-sub" x="690" y="643">2. Read back and verify</text>
  <text class="migration-sub" x="690" y="658">3. On mismatch: ROLLBACK all</text>

  <path class="arrow-yes" d="M 880,630 L 910,630"/>

  <!-- Post-migration -->
  <rect class="migration-box" x="915" y="600" width="230" height="60"/>
  <text class="migration-label" x="935" y="620">Secure-Delete Sources</text>
  <text class="migration-sub" x="935" y="638">DoD 5220.22-M 3-pass overwrite</text>
  <text class="migration-sub" x="935" y="653" style="fill: #f1c40f;">Deletion failures = WARN (best-effort)</text>

  <!-- Rollback detail -->
  <rect class="fail-box" x="670" y="690" width="210" height="65"/>
  <text class="fail-label" x="775" y="710">Rollback</text>
  <text class="process-detail" x="690" y="725" style="fill: #e8a0a0;">Delete ALL previously written keys</text>
  <text class="process-detail" x="690" y="740" style="fill: #e8a0a0;">from destination before returning Err</text>
  <text class="process-detail" x="690" y="755" style="fill: #e8a0a0;">No partial migrations left behind</text>

  <path class="arrow-no" d="M 775,670 L 775,688"/>
  <text class="no-label" x="785" y="683">fail</text>

  <!-- Advisories -->
  <rect class="warn-box" x="30" y="790" width="1140" height="70"/>
  <text class="warn-label" x="50" y="810">CoW / SSD Advisories (logged at daemon startup and before each delete)</text>
  <text class="process-detail" x="50" y="828" style="fill: #f1c40f;">APFS (macOS) / btrfs (Linux): Three-pass overwrite may not modify original blocks due to copy-on-write semantics</text>
  <text class="process-detail" x="50" y="843" style="fill: #f1c40f;">SSD / flash: Wear leveling firmware may redirect writes to spare blocks, leaving original data intact</text>
  <text class="process-detail" x="50" y="858" style="fill: #e8edf3;">Mitigation: Full-disk encryption (NIST SP 800-88 Rev 1, Section 2.5) + prefer keyring backend over file storage</text>

  <!-- Legend -->
  <rect class="legend-box" x="30" y="865" width="1140" height="30"/>
  <text class="legend-text" x="50" y="884">Diamonds: decisions  |  Green arrows: success path  |  Red arrows: failure path  |  Purple: migration  |  Teal: probe  |  Probes run at daemon startup and login</text>
</svg>
